# xmcd
#
# Track frame offsets: 
#        150
#        18556
#        35614
#        50393
#        67835
#        81978
#        95603
#        108586
#        121269
#        134972
#        147494
#
# Disc length: 2161 seconds
#
# Revision: 0
# Processed by: cddbd v1.5.2PL0 Copyright (c) Steve Scherf et al.
# Submitted via: ExactAudioCopy v1.0b3
#
DISCID=a2086f0b
DTITLE=Karin Page - Rewind
DYEAR=2015
DGENRE=Country
TTITLE0=Not Today
TTITLE1=Little Sally
TTITLE2=Vagrant
TTITLE3=Messed It Up
TTITLE4=Jump
TTITLE5=She Don't Need to Know
TTITLE6=Come to Me
TTITLE7=Two's Company
TTITLE8=Tell Me How
TTITLE9=Paper Squares
TTITLE10=I Won't Be Back
EXTD=
EXTT0=
EXTT1=
EXTT2=
EXTT3=
EXTT4=
EXTT5=
EXTT6=
EXTT7=
EXTT8=
EXTT9=
EXTT10=
PLAYORDER=
